<svg width="23" height="26" viewBox="0 0 23 26" fill="none" xmlns="http://www.w3.org/2000/svg">
    <path d="M22.1399 15H4.24994C4.14046 15.0007 4.0342 15.0372 3.94749 15.104C3.86078 15.1709 3.7984 15.2643 3.76994 15.37L1.76994 22.52L1.04994 10.21C1.04625 10.1736 1.0506 10.1368 1.0627 10.1023C1.0748 10.0677 1.09434 10.0362 1.11994 10.01C1.146 9.9837 1.17721 9.963 1.21161 9.94923C1.24602 9.93547 1.2829 9.92894 1.31994 9.93004H4.99994C5.0969 9.93043 5.19246 9.95319 5.27918 9.99655C5.36591 10.0399 5.44145 10.1027 5.49994 10.18L6.71994 11.75C6.766 11.8095 6.82513 11.8576 6.89277 11.8906C6.9604 11.9235 7.03471 11.9404 7.10994 11.94H17.9999V13.44C17.9999 13.5727 18.0526 13.6998 18.1464 13.7936C18.2402 13.8874 18.3673 13.94 18.4999 13.94C18.6325 13.94 18.7597 13.8874 18.8535 13.7936C18.9473 13.6998 18.9999 13.5727 18.9999 13.44V11.44C19.0013 11.3735 18.9893 11.3075 18.9648 11.2456C18.9403 11.1838 18.9036 11.1275 18.8571 11.08C18.8105 11.0325 18.7549 10.9948 18.6936 10.969C18.6323 10.9433 18.5664 10.93 18.4999 10.93H7.29994L6.23994 9.56004C6.09163 9.37026 5.90402 9.21479 5.68999 9.10432C5.47595 8.99385 5.24055 8.93099 4.99994 8.92004H1.31994C1.14543 8.92298 0.97326 8.96077 0.813554 9.03118C0.653849 9.10158 0.509823 9.2032 0.389937 9.33004C0.272138 9.45525 0.181205 9.60323 0.122733 9.76488C0.0642614 9.92654 0.0394882 10.0985 0.0499373 10.27L0.999937 25.5C1.01271 25.6058 1.04673 25.7078 1.09994 25.8C1.14596 25.8627 1.20624 25.9136 1.27579 25.9483C1.34534 25.9831 1.42218 26.0008 1.49994 26H18.4099C18.8345 25.9998 19.2468 25.858 19.5819 25.5973C19.9169 25.3365 20.1555 24.9715 20.2599 24.56L20.9999 21.67C21.017 21.6044 21.021 21.536 21.0116 21.4688C21.0023 21.4016 20.9798 21.3369 20.9454 21.2784C20.9111 21.2199 20.8655 21.1688 20.8114 21.1279C20.7573 21.087 20.6956 21.0571 20.6299 21.04C20.5643 21.023 20.4959 21.019 20.4287 21.0284C20.3615 21.0377 20.2968 21.0602 20.2383 21.0946C20.1798 21.1289 20.1286 21.1745 20.0877 21.2286C20.0468 21.2827 20.017 21.3444 19.9999 21.41L19.2399 24.31C19.186 24.5057 19.0701 24.6787 18.9097 24.8031C18.7493 24.9274 18.5529 24.9965 18.3499 25H2.15994L4.62994 16H21.4899L20.8099 18.58C20.7768 18.7127 20.7977 18.853 20.868 18.9702C20.9383 19.0874 21.0523 19.1719 21.1849 19.205C21.3175 19.2382 21.4579 19.2173 21.5751 19.147C21.6923 19.0767 21.7768 18.9627 21.8099 18.83L22.6499 15.62C22.6698 15.5462 22.6725 15.4687 22.6578 15.3936C22.643 15.3186 22.6112 15.2479 22.5648 15.187C22.5185 15.1262 22.4588 15.0768 22.3903 15.0426C22.3218 15.0085 22.2464 14.9905 22.1699 14.99L22.1399 15Z"
          fill="black"/>
    <path d="M11.1499 22.13C11.103 22.1765 11.0658 22.2318 11.0404 22.2928C11.015 22.3537 11.002 22.419 11.002 22.485C11.002 22.551 11.015 22.6164 11.0404 22.6773C11.0658 22.7383 11.103 22.7936 11.1499 22.84C11.1947 22.8879 11.249 22.926 11.3092 22.9521C11.3694 22.9781 11.4343 22.9916 11.4999 22.9916C11.5654 22.9916 11.6304 22.9781 11.6905 22.9521C11.7507 22.926 11.805 22.8879 11.8499 22.84C12.0223 22.6678 12.2561 22.5711 12.4999 22.5711C12.7436 22.5711 12.9774 22.6678 13.1499 22.84C13.1947 22.8879 13.249 22.926 13.3092 22.9521C13.3694 22.9781 13.4343 22.9916 13.4999 22.9916C13.5654 22.9916 13.6304 22.9781 13.6905 22.9521C13.7507 22.926 13.805 22.8879 13.8499 22.84C13.8967 22.7936 13.9339 22.7383 13.9593 22.6773C13.9847 22.6164 13.9978 22.551 13.9978 22.485C13.9978 22.419 13.9847 22.3537 13.9593 22.2928C13.9339 22.2318 13.8967 22.1765 13.8499 22.13C13.6732 21.9517 13.4629 21.8101 13.2312 21.7134C12.9995 21.6168 12.7509 21.567 12.4999 21.567C12.2488 21.567 12.0002 21.6168 11.7685 21.7134C11.5368 21.8101 11.3265 21.9517 11.1499 22.13Z"
          fill="black"/>
    <path d="M8.5 19C8.36739 19 8.24021 19.0527 8.14645 19.1464C8.05268 19.2402 8 19.3674 8 19.5C8 19.6326 8.05268 19.7598 8.14645 19.8536C8.24021 19.9473 8.36739 20 8.5 20H9.5C9.63261 20 9.75979 19.9473 9.85355 19.8536C9.94732 19.7598 10 19.6326 10 19.5C10 19.3674 9.94732 19.2402 9.85355 19.1464C9.75979 19.0527 9.63261 19 9.5 19H8.5Z"
          fill="black"/>
    <path d="M15.5 19C15.3674 19 15.2402 19.0527 15.1464 19.1464C15.0527 19.2402 15 19.3674 15 19.5C15 19.6326 15.0527 19.7598 15.1464 19.8536C15.2402 19.9473 15.3674 20 15.5 20H16.5C16.6326 20 16.7598 19.9473 16.8536 19.8536C16.9473 19.7598 17 19.6326 17 19.5C17 19.3674 16.9473 19.2402 16.8536 19.1464C16.7598 19.0527 16.6326 19 16.5 19H15.5Z"
          fill="black"/>
    <path d="M10.9999 9.29999C10.9806 9.39484 10.9871 9.49315 11.0187 9.58463C11.0504 9.67612 11.1061 9.7574 11.1799 9.81999C11.2683 9.88989 11.3773 9.92857 11.4899 9.92999C11.5625 9.94508 11.6374 9.94508 11.7099 9.92999L14.3899 8.57999C15.2314 8.84294 16.1084 8.97449 16.9899 8.96999C20.3499 8.96999 22.9899 7.20999 22.9899 4.96999C22.9899 3.11999 21.2199 1.56999 18.5799 1.08999C18.4473 1.06612 18.3107 1.0959 18.2 1.17279C18.0894 1.24968 18.0138 1.36738 17.9899 1.49999C17.9661 1.6326 17.9958 1.76925 18.0727 1.8799C18.1496 1.99055 18.2673 2.06612 18.3999 2.08999C20.5199 2.39999 21.9999 3.58999 21.9999 4.90999C21.9999 6.53999 19.7099 7.90999 16.9999 7.90999C16.157 7.91295 15.3192 7.77783 14.5199 7.50999C14.4602 7.48292 14.3955 7.46891 14.3299 7.46891C14.2644 7.46891 14.1996 7.48292 14.1399 7.50999L12.2499 8.50999L12.6799 6.75999C12.7001 6.68173 12.7007 6.59968 12.6815 6.52117C12.6623 6.44265 12.624 6.3701 12.5699 6.30999C12.2119 5.93078 12.0086 5.43142 11.9999 4.90999C11.9999 3.56999 13.5599 2.34999 15.6999 1.99999C15.8321 1.97788 15.9502 1.90463 16.0288 1.7961C16.1074 1.68756 16.1402 1.55246 16.1199 1.41999C16.0978 1.28782 16.0246 1.16967 15.916 1.09107C15.8075 1.01248 15.6724 0.979758 15.5399 0.999988C12.8699 1.43999 10.9999 2.99999 10.9999 4.89999C11.0077 5.56518 11.2364 6.20893 11.6499 6.72999L10.9999 9.29999Z"
          fill="black"/>
    <path d="M15.9 4.50996L16.29 4.90996L15.9 5.29996C15.8047 5.39555 15.7512 5.525 15.7512 5.65996C15.7512 5.79491 15.8047 5.92436 15.9 6.01996C15.9946 6.10926 16.1198 6.15901 16.25 6.15901C16.3801 6.15901 16.5053 6.10926 16.6 6.01996L17 5.61996L17.4 6.01996C17.4946 6.10926 17.6198 6.15901 17.75 6.15901C17.8801 6.15901 18.0053 6.10926 18.1 6.01996C18.1952 5.92436 18.2487 5.79491 18.2487 5.65996C18.2487 5.525 18.1952 5.39555 18.1 5.29996L17.71 4.90996L18.1 4.50996C18.1468 4.46347 18.184 4.40817 18.2094 4.34724C18.2348 4.28631 18.2479 4.22096 18.2479 4.15496C18.2479 4.08895 18.2348 4.0236 18.2094 3.96267C18.184 3.90174 18.1468 3.84644 18.1 3.79996C18.0551 3.75213 18.0009 3.714 17.9407 3.68794C17.8805 3.66188 17.8156 3.64844 17.75 3.64844C17.6844 3.64844 17.6195 3.66188 17.5593 3.68794C17.4991 3.714 17.4449 3.75213 17.4 3.79996L17 4.19996L16.6 3.79996C16.5551 3.75213 16.5009 3.714 16.4407 3.68794C16.3805 3.66188 16.3156 3.64844 16.25 3.64844C16.1844 3.64844 16.1195 3.66188 16.0593 3.68794C15.9991 3.714 15.9449 3.75213 15.9 3.79996C15.8531 3.84644 15.8159 3.90174 15.7905 3.96267C15.7651 4.0236 15.7521 4.08895 15.7521 4.15496C15.7521 4.22096 15.7651 4.28631 15.7905 4.34724C15.8159 4.40817 15.8531 4.46347 15.9 4.50996Z"
          fill="black"/>
</svg>
